<svg xmlns="http://www.w3.org/2000/svg" viewBox="0 0 222 239" width="222" height="239">
	<style>
		tspan { white-space:pre }
		.shp0 { fill: #ee7674 } 
	</style>
	<g id="person">
		<path id="Layer" class="shp0" d="M188.3,169.5c-0.7,0.8 -1.3,1.8 -1.3,2.2c0,0.5 5.9,6.7 13,13.8c7.2,7.2 12.9,13.5 12.8,14.2c-0.2,0.6 -6,7.5 -13,15.2c-7.1,7.7 -12.8,14.4 -12.8,14.9c0,0.5 0.9,1.7 2.1,2.8c2.1,1.9 2.1,1.8 5.7,-2.2c22.5,-24.8 26.8,-29.7 27.1,-30.6c0.4,-1.2 -29.8,-31.8 -31.4,-31.8c-0.5,0.1 -1.6,0.7 -2.2,1.5z" />
		<path id="Layer" class="shp0" d="M123.8,168.9c-0.1,0.5 -5.8,6.9 -12.5,14.3c-15.7,17.2 -16.3,17.9 -16.3,19.2c0,1.9 30.7,31.9 31.9,31.2c0.6,-0.4 1.5,-1.5 2.1,-2.5c0.8,-1.5 -1.2,-3.9 -12,-14.7c-7.2,-7 -13,-13.4 -13,-14.1c0,-1.1 8.8,-11.3 23.4,-27c2.9,-3.2 2.9,-3.3 1.1,-5.3c-1.9,-2.1 -4.1,-2.6 -4.7,-1.1z" />
		<path id="backslash" class="shp0" d="M155.2,199.7c-13.2,34.1 -14.1,36.9 -12.5,38.1c1,0.7 2.4,1.1 3.1,1c1.5,-0.3 29.4,-71.4 29,-73.8c-0.2,-0.8 -1.4,-1.6 -2.8,-1.8c-2.5,-0.3 -3,1 -16.8,36.5z" />
		<path id="corps" class="shp0" d="M23.6,116.8c-0.3,0.5 -3.2,11.4 -6.5,24.3c-3.2,12.9 -8.5,33.2 -11.5,45.3c-3.1,12 -5.5,22 -5.3,22.3c0.3,0.2 1.7,0.5 3.2,0.6l2.7,0.2l5.8,-23c3.2,-12.7 8.1,-31.9 10.9,-42.8c2.8,-10.9 5.3,-20.2 5.6,-20.7c0.4,-0.6 8,-1 18.6,-1c16.2,0 18,0.2 18.6,1.7c5.5,16.4 15,24.6 28.3,24.6c3.7,0 8.1,-0.6 10.2,-1.6c5.6,-2.4 12.3,-9.1 15.3,-15.5c1.5,-3.1 3.1,-6.4 3.5,-7.2c0.6,-1.2 3.9,-1.5 18.8,-1.8c16.5,-0.2 18.1,-0.1 18.6,1.5c0.6,2.2 4.1,15.8 5,19.6c0.6,2.4 1.1,2.8 3.4,2.5c3.4,-0.4 3.4,-2.6 -0.1,-16c-4,-15.3 -1,-13.8 -27.8,-13.8c-17.5,0 -23,0.3 -23.3,1.2c-3,10.4 -4.2,13.2 -6.7,16.6c-4.3,5.9 -10.4,8.5 -18.3,8c-5,-0.3 -7.1,-1 -10,-3.2c-4.2,-3.2 -7.7,-8.4 -9.6,-14.1c-3,-9.5 0,-8.5 -25.9,-8.5c-12.6,0 -23.2,0.4 -23.5,0.8z" />
		<path id="tete" class="shp0" d="M144.1,34.5c4,10.7 4.7,19.8 2.3,30.1c-5.8,25.1 -27.2,42.4 -52.4,42.4c-23.4,0 -44.6,-15.9 -51.5,-38.7c-2.2,-7.1 -2,-23.6 0.4,-30.4c6.4,-18.6 18.9,-30.6 37.6,-36c25.2,-7.3 54.1,7.5 63.6,32.6zM61.9,19.7c-15.7,14.2 -18.9,40.8 -7,59c9.1,13.8 22.8,21.3 39.1,21.3c21.8,0 39.8,-14.2 45.4,-35.7c4,-15.4 -0.6,-31.7 -12.3,-43.4c-6.1,-6.1 -12.3,-9.7 -21,-12.3c-14.5,-4.3 -32.1,0.1 -44.2,11.1z" />
	</g>
</svg>