<svg xmlns="http://www.w3.org/2000/svg" viewBox="0 0 609 459" width="609" height="459">
	<style>
		tspan { white-space:pre }
		.shp0 { fill: #000000 } 
	</style>
	<g id="logo">
		<g id="name">
			<path id="A2" class="shp0" d="M455,359.2c-1.6,3.5 -9.7,20.9 -17.9,38.8c-14.8,32.1 -14.9,32.5 -12.4,32.8c1.4,0.2 2.9,0 3.3,-0.5c0.5,-0.4 7.9,-16.5 16.6,-35.6c8.6,-19.1 16.1,-34.4 16.5,-34c0.3,0.4 7.8,16.4 16.4,35.5c15.6,34.3 15.9,34.8 18.8,34.8c2.1,0 2.8,-0.4 2.4,-1.5c-0.4,-0.8 -8.4,-18.3 -17.9,-39c-16.8,-36.5 -17.3,-37.5 -20.1,-37.5c-2.5,0 -3.1,0.7 -5.7,6.2z" />
			<path id="G" class="shp0" d="M356.7,355c-7.5,2.7 -12.4,5.8 -16.6,10.6c-9.9,11.3 -12.4,30.2 -5.7,43.8c3.4,6.9 10.7,14 18.4,17.8c5.4,2.7 7.7,3.2 16,3.6c8.1,0.3 10.8,0.1 16.2,-1.8c3.6,-1.2 8.2,-3.2 10.3,-4.6l3.7,-2.4v-15.1v-15l-2.7,0.3l-2.8,0.3l-0.3,13.8l-0.3,13.8l-5.7,2.7c-5,2.4 -6.9,2.7 -15.7,2.6c-8.1,0 -10.9,-0.5 -15,-2.3c-7.9,-3.6 -13,-8.4 -16.7,-15.9c-3,-6 -3.3,-7.6 -3.3,-15.2c0,-7.6 0.3,-9.2 3.3,-15.2c5.5,-11.2 15.6,-17.7 28.8,-18.6c9.1,-0.6 16.2,1.1 22.4,5.3c4.6,3.1 5,3.2 6.5,1.5c1.5,-1.6 1.3,-2 -1.7,-4.5c-6.2,-5.2 -11.4,-6.9 -22.8,-7.2c-8.6,-0.3 -11.5,0 -16.3,1.7z" />
			<path id="A1" class="shp0" d="M271.1,355.2c-0.5,1.3 -8.4,18.5 -17.5,38.2c-9.1,19.8 -16.6,36.4 -16.6,36.8c0,0.5 1.2,0.8 2.8,0.6c2.5,-0.3 3.7,-2.4 18.7,-35.5c8.8,-19.4 16.2,-35.3 16.5,-35.2c0.3,0 7.7,15.8 16.5,35.2c15,33.1 16.2,35.2 18.8,35.5c1.5,0.2 2.7,-0.1 2.7,-0.6c0,-0.5 -7.9,-18 -17.4,-38.8c-17.1,-37.1 -17.6,-37.9 -20.5,-38.2c-2.5,-0.3 -3.3,0.2 -4,2z" />
			<path id="B" class="shp0" d="M155,355.4v2.5l20.3,0.3c17.8,0.3 20.7,0.5 24.2,2.3c5.9,3 8.8,7.8 8.2,13.8c-0.5,5.9 -3,9.5 -8.3,12.2c-3.4,1.8 -6.3,2 -24.1,2.3l-20.3,0.3v2.5v2.4h20.8c11.6,0 22.4,0.5 24.5,1.1c2.2,0.6 5.5,2.5 7.5,4.3c3.2,2.9 3.6,4 4,9.2c0.3,5 0,6.4 -2,9.3c-4.6,6.8 -7.6,7.6 -32.5,7.9l-22.3,0.4v2.5v2.5l22.8,-0.4c21.1,-0.3 23.1,-0.5 27.7,-2.6c6.5,-3 9.1,-5.5 11.1,-10.9c3.7,-9.6 -0.5,-20.3 -9.5,-24.4l-5.1,-2.2l2.8,-1.7c15.2,-9.4 10.3,-31 -7.9,-34.9c-2.7,-0.6 -13.3,-1.1 -23.4,-1.1h-18.5z" />
			<path id="I" class="shp0" d="M111,392v39h2.5h2.5v-39v-39h-2.5h-2.5z" />
		</g>
		<g id="person">
			<path id="Layer" class="shp0" d="M402.3,242.5c-0.7,0.8 -1.3,1.8 -1.3,2.2c0,0.5 5.9,6.7 13,13.8c7.2,7.2 12.9,13.5 12.8,14.2c-0.2,0.6 -6,7.5 -13,15.2c-7.1,7.7 -12.8,14.4 -12.8,14.9c0,0.5 0.9,1.7 2.1,2.8c2.1,1.9 2.1,1.8 5.7,-2.2c22.5,-24.8 26.8,-29.7 27.1,-30.6c0.4,-1.2 -29.8,-31.8 -31.4,-31.8c-0.5,0.1 -1.6,0.7 -2.2,1.5z" />
			<path id="Layer" class="shp0" d="M337.8,241.9c-0.1,0.5 -5.8,6.9 -12.5,14.3c-15.7,17.2 -16.3,17.9 -16.3,19.2c0,1.9 30.7,31.9 31.9,31.2c0.6,-0.4 1.5,-1.5 2.1,-2.5c0.8,-1.5 -1.2,-3.9 -12,-14.7c-7.2,-7 -13,-13.4 -13,-14.1c0,-1.1 8.8,-11.3 23.4,-27c2.9,-3.2 2.9,-3.3 1.1,-5.3c-1.9,-2.1 -4.1,-2.6 -4.7,-1.1z" />
			<path id="backslash" class="shp0" d="M369.2,272.7c-13.2,34.1 -14.1,36.9 -12.5,38.1c1,0.7 2.4,1.1 3.1,1c1.5,-0.3 29.4,-71.4 29,-73.8c-0.2,-0.8 -1.4,-1.6 -2.8,-1.8c-2.5,-0.3 -3,1 -16.8,36.5z" />
			<path id="corps" class="shp0" d="M237.6,189.8c-0.3,0.5 -3.2,11.4 -6.5,24.3c-3.2,12.9 -8.5,33.2 -11.5,45.3c-3.1,12 -5.5,22 -5.3,22.3c0.3,0.2 1.7,0.5 3.2,0.6l2.7,0.2l5.8,-23c3.2,-12.7 8.1,-31.9 10.9,-42.8c2.8,-10.9 5.3,-20.2 5.6,-20.7c0.4,-0.6 8,-1 18.6,-1c16.2,0 18,0.2 18.6,1.7c5.5,16.4 15,24.6 28.3,24.6c3.7,0 8.1,-0.6 10.2,-1.6c5.6,-2.4 12.3,-9.1 15.3,-15.5c1.5,-3.1 3.1,-6.4 3.5,-7.2c0.6,-1.2 3.9,-1.5 18.8,-1.8c16.5,-0.2 18.1,-0.1 18.6,1.5c0.6,2.2 4.1,15.8 5,19.6c0.6,2.4 1.1,2.8 3.4,2.5c3.4,-0.4 3.4,-2.6 -0.1,-16c-4,-15.3 -1,-13.8 -27.8,-13.8c-17.5,0 -23,0.3 -23.3,1.2c-3,10.4 -4.2,13.2 -6.7,16.6c-4.3,5.9 -10.4,8.5 -18.3,8c-5,-0.3 -7.1,-1 -10,-3.2c-4.2,-3.2 -7.7,-8.4 -9.6,-14.1c-3,-9.5 0,-8.5 -25.9,-8.5c-12.6,0 -23.2,0.4 -23.5,0.8z" />
			<path id="tete" class="shp0" d="M358.1,107.5c4,10.7 4.7,19.8 2.3,30.1c-5.8,25.1 -27.2,42.4 -52.4,42.4c-23.4,0 -44.6,-15.9 -51.5,-38.7c-2.2,-7.1 -2,-23.6 0.4,-30.4c6.4,-18.6 18.9,-30.6 37.6,-36c25.2,-7.3 54.1,7.5 63.6,32.6zM275.9,92.7c-15.7,14.2 -18.9,40.8 -7,59c9.1,13.8 22.8,21.3 39.1,21.3c21.8,0 39.8,-14.2 45.4,-35.7c4,-15.4 -0.6,-31.7 -12.3,-43.4c-6.1,-6.1 -12.3,-9.7 -21,-12.3c-14.5,-4.3 -32.1,0.1 -44.2,11.1z" />
		</g>
	</g>
</svg>